<mxfile host="app.diagrams.net" modified="2022-02-21T22:44:27.773Z" agent="5.0 (Windows)" etag="9kpVweavpDqHEE5SPB3W" version="16.6.2" type="github">
  <diagram id="EJUyLDE8dpplyQV_OALp" name="Page-1">
    <mxGraphModel dx="844" dy="659" grid="1" gridSize="10" guides="1" tooltips="1" connect="1" arrows="1" fold="1" page="1" pageScale="1" pageWidth="850" pageHeight="1100" math="0" shadow="0">
      <root>
        <mxCell id="0" />
        <mxCell id="1" parent="0" />
        <mxCell id="SGqOOhRafnId8bbcA3R9-1" value="Book" style="swimlane;childLayout=stackLayout;horizontal=1;startSize=30;horizontalStack=0;rounded=1;fontSize=14;fontStyle=0;strokeWidth=2;resizeParent=0;resizeLast=1;shadow=0;dashed=0;align=center;" vertex="1" parent="1">
          <mxGeometry x="60" y="70" width="160" height="120" as="geometry" />
        </mxCell>
        <mxCell id="SGqOOhRafnId8bbcA3R9-2" value="&lt;font style=&quot;font-size: 9px&quot;&gt;+&lt;u style=&quot;font-size: 9px&quot;&gt;book_id&lt;/u&gt;&lt;br style=&quot;font-size: 9px&quot;&gt;+title&lt;br style=&quot;font-size: 9px&quot;&gt;+publication_date&lt;br style=&quot;font-size: 9px&quot;&gt;&lt;/font&gt;&lt;div style=&quot;font-size: 9px&quot;&gt;&lt;font style=&quot;font-size: 9px&quot;&gt;+ISBN&lt;/font&gt;&lt;/div&gt;&lt;div style=&quot;font-size: 9px&quot;&gt;&lt;font style=&quot;font-size: 9px&quot;&gt;+authors&lt;/font&gt;&lt;/div&gt;&lt;div style=&quot;font-size: 9px&quot;&gt;&lt;font style=&quot;font-size: 9px&quot;&gt;+self_published&lt;/font&gt;&lt;/div&gt;&lt;div style=&quot;font-size: 9px&quot;&gt;&lt;font style=&quot;font-size: 9px&quot;&gt;+publisher_id*&lt;br&gt;&lt;/font&gt;&lt;/div&gt;&lt;div style=&quot;font-size: 9px&quot;&gt;&lt;font style=&quot;font-size: 9px&quot;&gt;&lt;br style=&quot;font-size: 9px&quot;&gt;&lt;/font&gt;&lt;/div&gt;" style="align=left;strokeColor=none;fillColor=none;spacingLeft=4;fontSize=12;verticalAlign=top;resizable=0;rotatable=0;part=1;html=1;" vertex="1" parent="SGqOOhRafnId8bbcA3R9-1">
          <mxGeometry y="30" width="160" height="90" as="geometry" />
        </mxCell>
        <mxCell id="SGqOOhRafnId8bbcA3R9-3" value="Author" style="swimlane;childLayout=stackLayout;horizontal=1;startSize=30;horizontalStack=0;rounded=1;fontSize=14;fontStyle=0;strokeWidth=2;resizeParent=0;resizeLast=1;shadow=0;dashed=0;align=center;" vertex="1" parent="1">
          <mxGeometry x="440" y="70" width="160" height="120" as="geometry" />
        </mxCell>
        <mxCell id="SGqOOhRafnId8bbcA3R9-4" value="&lt;div&gt;+&lt;u&gt;author_id&lt;/u&gt;&lt;/div&gt;&lt;div&gt;+name (unique)&lt;/div&gt;+phone_number&lt;br&gt;+email" style="align=left;strokeColor=none;fillColor=none;spacingLeft=4;fontSize=12;verticalAlign=top;resizable=0;rotatable=0;part=1;html=1;" vertex="1" parent="SGqOOhRafnId8bbcA3R9-3">
          <mxGeometry y="30" width="160" height="90" as="geometry" />
        </mxCell>
        <mxCell id="SGqOOhRafnId8bbcA3R9-5" style="rounded=0;orthogonalLoop=1;jettySize=auto;html=1;exitX=1;exitY=0.5;exitDx=0;exitDy=0;entryX=0;entryY=0.25;entryDx=0;entryDy=0;endArrow=none;endFill=0;" edge="1" parent="1" source="SGqOOhRafnId8bbcA3R9-6" target="SGqOOhRafnId8bbcA3R9-4">
          <mxGeometry relative="1" as="geometry" />
        </mxCell>
        <mxCell id="SGqOOhRafnId8bbcA3R9-6" value="written by" style="shape=rhombus;perimeter=rhombusPerimeter;whiteSpace=wrap;html=1;align=center;" vertex="1" parent="1">
          <mxGeometry x="260" y="90" width="120" height="60" as="geometry" />
        </mxCell>
        <mxCell id="SGqOOhRafnId8bbcA3R9-7" value="" style="endArrow=none;html=1;rounded=0;startArrow=block;startFill=1;" edge="1" parent="1">
          <mxGeometry relative="1" as="geometry">
            <mxPoint x="220" y="120" as="sourcePoint" />
            <mxPoint x="260" y="120" as="targetPoint" />
          </mxGeometry>
        </mxCell>
        <mxCell id="SGqOOhRafnId8bbcA3R9-8" style="edgeStyle=none;rounded=0;orthogonalLoop=1;jettySize=auto;html=1;entryX=0.5;entryY=1;entryDx=0;entryDy=0;endArrow=none;endFill=0;startArrow=block;startFill=1;" edge="1" parent="1" source="SGqOOhRafnId8bbcA3R9-9" target="SGqOOhRafnId8bbcA3R9-12">
          <mxGeometry relative="1" as="geometry" />
        </mxCell>
        <mxCell id="SGqOOhRafnId8bbcA3R9-9" value="Publisher" style="swimlane;childLayout=stackLayout;horizontal=1;startSize=30;horizontalStack=0;rounded=1;fontSize=14;fontStyle=0;strokeWidth=2;resizeParent=0;resizeLast=1;shadow=0;dashed=0;align=center;" vertex="1" parent="1">
          <mxGeometry x="60" y="250" width="160" height="120" as="geometry" />
        </mxCell>
        <mxCell id="SGqOOhRafnId8bbcA3R9-10" value="&lt;u&gt;+publisher_id&lt;/u&gt;&lt;br&gt;+name&lt;br&gt;&lt;div&gt;+phone_number&lt;/div&gt;&lt;div&gt;+email&lt;/div&gt;&lt;div&gt;+mailing_address&lt;br&gt;&lt;/div&gt;" style="align=left;strokeColor=none;fillColor=none;spacingLeft=4;fontSize=12;verticalAlign=top;resizable=0;rotatable=0;part=1;html=1;" vertex="1" parent="SGqOOhRafnId8bbcA3R9-9">
          <mxGeometry y="30" width="160" height="90" as="geometry" />
        </mxCell>
        <mxCell id="SGqOOhRafnId8bbcA3R9-11" style="edgeStyle=none;rounded=0;orthogonalLoop=1;jettySize=auto;html=1;entryX=0.5;entryY=1;entryDx=0;entryDy=0;endArrow=none;endFill=0;" edge="1" parent="1" source="SGqOOhRafnId8bbcA3R9-12" target="SGqOOhRafnId8bbcA3R9-2">
          <mxGeometry relative="1" as="geometry" />
        </mxCell>
        <mxCell id="SGqOOhRafnId8bbcA3R9-12" value="about" style="shape=rhombus;perimeter=rhombusPerimeter;whiteSpace=wrap;html=1;align=center;" vertex="1" parent="1">
          <mxGeometry x="80" y="210" width="120" height="20" as="geometry" />
        </mxCell>
        <mxCell id="SGqOOhRafnId8bbcA3R9-13" style="edgeStyle=none;rounded=0;orthogonalLoop=1;jettySize=auto;html=1;startArrow=block;startFill=0;endArrow=none;endFill=0;entryX=0.5;entryY=0;entryDx=0;entryDy=0;" edge="1" parent="1" source="SGqOOhRafnId8bbcA3R9-14" target="SGqOOhRafnId8bbcA3R9-22">
          <mxGeometry relative="1" as="geometry">
            <mxPoint x="520" y="440" as="targetPoint" />
            <Array as="points">
              <mxPoint x="700" y="310" />
            </Array>
          </mxGeometry>
        </mxCell>
        <mxCell id="SGqOOhRafnId8bbcA3R9-14" value="Chapters" style="swimlane;childLayout=stackLayout;horizontal=1;startSize=30;horizontalStack=0;rounded=1;fontSize=14;fontStyle=0;strokeWidth=2;resizeParent=0;resizeLast=1;shadow=0;dashed=0;align=center;" vertex="1" parent="1">
          <mxGeometry x="440" y="250" width="160" height="120" as="geometry" />
        </mxCell>
        <mxCell id="SGqOOhRafnId8bbcA3R9-15" value="+&lt;u&gt;chapter_id&lt;/u&gt;&lt;br&gt;+number&lt;br&gt;+title" style="align=left;strokeColor=none;fillColor=none;spacingLeft=4;fontSize=12;verticalAlign=top;resizable=0;rotatable=0;part=1;html=1;" vertex="1" parent="SGqOOhRafnId8bbcA3R9-14">
          <mxGeometry y="30" width="160" height="90" as="geometry" />
        </mxCell>
        <mxCell id="SGqOOhRafnId8bbcA3R9-16" value="" style="edgeStyle=none;rounded=0;orthogonalLoop=1;jettySize=auto;html=1;endArrow=none;endFill=0;exitX=0.5;exitY=1;exitDx=0;exitDy=0;" edge="1" parent="1" source="SGqOOhRafnId8bbcA3R9-19">
          <mxGeometry relative="1" as="geometry">
            <mxPoint x="520" y="240" as="sourcePoint" />
            <mxPoint x="520" y="250" as="targetPoint" />
          </mxGeometry>
        </mxCell>
        <mxCell id="SGqOOhRafnId8bbcA3R9-17" style="edgeStyle=none;rounded=0;orthogonalLoop=1;jettySize=auto;html=1;entryX=0.5;entryY=1;entryDx=0;entryDy=0;endArrow=none;endFill=0;" edge="1" parent="1">
          <mxGeometry relative="1" as="geometry">
            <mxPoint x="520" y="240" as="sourcePoint" />
            <mxPoint x="520" y="240" as="targetPoint" />
          </mxGeometry>
        </mxCell>
        <mxCell id="SGqOOhRafnId8bbcA3R9-18" style="edgeStyle=none;rounded=0;orthogonalLoop=1;jettySize=auto;html=1;endArrow=none;endFill=0;startArrow=block;startFill=0;entryX=0.5;entryY=0;entryDx=0;entryDy=0;" edge="1" parent="1" target="SGqOOhRafnId8bbcA3R9-19">
          <mxGeometry relative="1" as="geometry">
            <mxPoint x="520" y="200" as="targetPoint" />
            <mxPoint x="220" y="150" as="sourcePoint" />
            <Array as="points">
              <mxPoint x="220" y="150" />
            </Array>
          </mxGeometry>
        </mxCell>
        <mxCell id="SGqOOhRafnId8bbcA3R9-19" value="contains" style="shape=rhombus;double=1;perimeter=rhombusPerimeter;whiteSpace=wrap;html=1;align=center;" vertex="1" parent="1">
          <mxGeometry x="260" y="170" width="120" height="50" as="geometry" />
        </mxCell>
        <mxCell id="SGqOOhRafnId8bbcA3R9-20" style="edgeStyle=none;rounded=0;orthogonalLoop=1;jettySize=auto;html=1;exitX=0.5;exitY=0;exitDx=0;exitDy=0;startArrow=block;startFill=0;endArrow=none;endFill=0;" edge="1" parent="1" source="SGqOOhRafnId8bbcA3R9-12" target="SGqOOhRafnId8bbcA3R9-12">
          <mxGeometry relative="1" as="geometry" />
        </mxCell>
        <mxCell id="SGqOOhRafnId8bbcA3R9-21" style="edgeStyle=none;rounded=0;orthogonalLoop=1;jettySize=auto;html=1;exitX=0.5;exitY=1;exitDx=0;exitDy=0;entryX=0.5;entryY=1;entryDx=0;entryDy=0;startArrow=none;startFill=0;endArrow=none;endFill=0;" edge="1" parent="1" source="SGqOOhRafnId8bbcA3R9-22" target="SGqOOhRafnId8bbcA3R9-14">
          <mxGeometry relative="1" as="geometry">
            <Array as="points">
              <mxPoint x="520" y="420" />
            </Array>
          </mxGeometry>
        </mxCell>
        <mxCell id="SGqOOhRafnId8bbcA3R9-22" value="replied to" style="shape=rhombus;perimeter=rhombusPerimeter;whiteSpace=wrap;html=1;align=center;" vertex="1" parent="1">
          <mxGeometry x="640" y="360" width="120" height="60" as="geometry" />
        </mxCell>
        <mxCell id="SGqOOhRafnId8bbcA3R9-23" style="edgeStyle=none;rounded=0;orthogonalLoop=1;jettySize=auto;html=1;exitX=1;exitY=0.5;exitDx=0;exitDy=0;startArrow=none;startFill=0;endArrow=none;endFill=0;" edge="1" parent="1" source="SGqOOhRafnId8bbcA3R9-25" target="SGqOOhRafnId8bbcA3R9-2">
          <mxGeometry relative="1" as="geometry" />
        </mxCell>
        <mxCell id="SGqOOhRafnId8bbcA3R9-30" style="edgeStyle=orthogonalEdgeStyle;rounded=0;orthogonalLoop=1;jettySize=auto;html=1;exitX=0.5;exitY=1;exitDx=0;exitDy=0;fontSize=9;startArrow=none;startFill=0;endArrow=none;endFill=0;" edge="1" parent="1" source="SGqOOhRafnId8bbcA3R9-25" target="SGqOOhRafnId8bbcA3R9-27">
          <mxGeometry relative="1" as="geometry" />
        </mxCell>
        <mxCell id="SGqOOhRafnId8bbcA3R9-25" value="on" style="shape=rhombus;perimeter=rhombusPerimeter;whiteSpace=wrap;html=1;align=center;" vertex="1" parent="1">
          <mxGeometry x="260" y="240" width="120" height="60" as="geometry" />
        </mxCell>
        <mxCell id="SGqOOhRafnId8bbcA3R9-27" value="Tags" style="swimlane;childLayout=stackLayout;horizontal=1;startSize=30;horizontalStack=0;rounded=1;fontSize=14;fontStyle=0;strokeWidth=2;resizeParent=0;resizeLast=1;shadow=0;dashed=0;align=center;" vertex="1" parent="1">
          <mxGeometry x="250" y="320" width="160" height="120" as="geometry" />
        </mxCell>
        <mxCell id="SGqOOhRafnId8bbcA3R9-28" value="&lt;u&gt;+tag_id&lt;/u&gt;&lt;br&gt;+fiction&lt;br&gt;&lt;div&gt;+non-fiction&lt;/div&gt;&lt;div&gt;+computer science&lt;/div&gt;&lt;div&gt;+statistics&lt;/div&gt;&lt;div&gt;+language&lt;br&gt;&lt;/div&gt;" style="align=left;strokeColor=none;fillColor=none;spacingLeft=4;fontSize=12;verticalAlign=top;resizable=0;rotatable=0;part=1;html=1;" vertex="1" parent="SGqOOhRafnId8bbcA3R9-27">
          <mxGeometry y="30" width="160" height="90" as="geometry" />
        </mxCell>
      </root>
    </mxGraphModel>
  </diagram>
</mxfile>
